<?xml version="1.0" encoding="utf-8"?>
<!-- Generator: Adobe Illustrator 23.0.0, SVG Export Plug-In . SVG Version: 6.00 Build 0)  -->
<svg version="1.1" id="Livello_1" focusable="false"
	 xmlns="http://www.w3.org/2000/svg" xmlns:xlink="http://www.w3.org/1999/xlink" x="0px" y="0px" viewBox="0 0 448 512"
	 style="enable-background:new 0 0 448 512;" xml:space="preserve">
<style type="text/css">
	.st0{fill:none;stroke:#000000;stroke-width:20;stroke-miterlimit:10;}
</style>
<path class="st0" d="M414.5,169.8c5.9,0,10.8-4.9,10.8-10.8V123c0-5.9-4.9-10.8-10.8-10.8h-18V69.1c0-23.8-19.3-43.1-43.1-43.1H65.9
	c-23.8,0-43.1,19.3-43.1,43.1v373.8c0,23.8,19.3,43.1,43.1,43.1h287.5c23.8,0,43.1-19.3,43.1-43.1v-43.1h18
	c5.9,0,10.8-4.9,10.8-10.8V353c0-5.9-4.9-10.8-10.8-10.8h-18v-57.5h18c5.9,0,10.8-4.9,10.8-10.8V238c0-5.9-4.9-10.8-10.8-10.8h-18
	v-57.5H414.5z M353.4,442.9H65.9V69.1h287.5V442.9z M209.6,256c31.7,0,57.5-25.8,57.5-57.5S241.3,141,209.6,141
	s-57.5,25.8-57.5,57.5S177.9,256,209.6,256z M129.1,371h161c11.1,0,20.1-7.7,20.1-17.3v-17.3c0-28.6-27-51.8-60.4-51.8
	c-9.7,0-16.8,7.2-40.3,7.2c-24.2,0-30-7.2-40.3-7.2c-33.3,0-60.4,23.2-60.4,51.8v17.3C109,363.3,118,371,129.1,371z"/>
</svg>
