<?xml version="1.0" encoding="utf-8"?>
<!-- Generator: Adobe Illustrator 23.0.0, SVG Export Plug-In . SVG Version: 6.00 Build 0)  -->
<svg version="1.1" id="Livello_1" focusable="false"
	 xmlns="http://www.w3.org/2000/svg" xmlns:xlink="http://www.w3.org/1999/xlink" x="0px" y="0px" viewBox="0 0 512 512"
	 style="enable-background:new 0 0 512 512;" xml:space="preserve">
<style type="text/css">
	.st0{fill:none;stroke:#000000;stroke-width:20;stroke-miterlimit:10;}
</style>
<path class="st0" d="M472.9,418.6L386,331.8c-3.9-3.9-9.2-6.1-14.8-6.1H357c24-30.7,38.3-69.4,38.3-111.5
	c0-100.1-81.1-181.1-181.1-181.1S33,114.1,33,214.2s81.1,181.1,181.1,181.1c42.1,0,80.7-14.3,111.5-38.3v14.2
	c0,5.6,2.2,10.9,6.1,14.8l86.8,86.8c8.2,8.2,21.4,8.2,29.5,0l24.6-24.6C481,440,481,426.8,472.9,418.6z M214.2,325.7
	c-61.6,0-111.5-49.8-111.5-111.5c0-61.6,49.8-111.5,111.5-111.5c61.6,0,111.5,49.8,111.5,111.5C325.7,275.8,275.9,325.7,214.2,325.7
	z"/>
</svg>
