<?xml version="1.0" encoding="utf-8"?>
<!-- Generator: Adobe Illustrator 23.0.0, SVG Export Plug-In . SVG Version: 6.00 Build 0)  -->
<svg version="1.1" id="Livello_1" focusable="false"
	 xmlns="http://www.w3.org/2000/svg" xmlns:xlink="http://www.w3.org/1999/xlink" x="0px" y="0px" viewBox="0 0 576 512"
	 style="enable-background:new 0 0 576 512;" xml:space="preserve">
<style type="text/css">
	.st0{fill:none;stroke:#000000;stroke-width:20;stroke-miterlimit:10;}
</style>
<path class="st0" d="M498.1,295.7l41.4-182c3-13.1-7-25.7-20.5-25.7H175.3l-8-39.2c-2-9.8-10.6-16.8-20.6-16.8H57
	c-11.6,0-21,9.4-21,21v14c0,11.6,9.4,21,21,21h61.1l61.5,300.5C164.9,397,155,412.8,155,431c0,27.1,21.9,49,49,49s49-21.9,49-49
	c0-13.7-5.6-26.1-14.7-35h183.4c-9.1,8.9-14.7,21.3-14.7,35c0,27.1,21.9,49,49,49s49-21.9,49-49c0-19.4-11.3-36.2-27.6-44.1
	l4.8-21.2c3-13.1-7-25.7-20.5-25.7H226.9l-5.7-28h256.5C487.4,312,495.9,305.2,498.1,295.7z"/>
</svg>
