<?xml version="1.0" encoding="utf-8"?>
<!-- Generator: Adobe Illustrator 23.0.0, SVG Export Plug-In . SVG Version: 6.00 Build 0)  -->
<svg version="1.1" id="Livello_1" focusable="false"
	 xmlns="http://www.w3.org/2000/svg" xmlns:xlink="http://www.w3.org/1999/xlink" x="0px" y="0px" viewBox="0 0 616 512"
	 style="enable-background:new 0 0 616 512;" xml:space="preserve">
<style type="text/css">
	.st0{fill:none;stroke:#000000;stroke-width:20;stroke-miterlimit:10;}
</style>
<path class="st0" d="M582.9,126.1l-60.7-97.9c-5.4-8.8-15.1-14.2-25.3-14.2H119.1c-10.3,0-19.9,5.4-25.3,14.2l-60.7,97.9
	c-31.3,50.6-3.6,120.9,55,128.9c4.2,0.6,8.5,0.9,12.8,0.9c27.7,0,52.2-12.3,69-31.3c16.8,19,41.4,31.3,69,31.3
	c27.7,0,52.2-12.3,69-31.3c16.8,19,41.4,31.3,69,31.3c27.7,0,52.2-12.3,69-31.3c16.9,19,41.4,31.3,69,31.3c4.4,0,8.6-0.3,12.8-0.9
	C586.5,247.1,614.3,176.8,582.9,126.1z M515.1,286.3c-9.4,0-18.6-1.4-27.6-3.6V377H128.5v-94.3c-9,2.1-18.2,3.6-27.6,3.6
	c-5.6,0-11.3-0.4-16.8-1.1c-5.2-0.8-10.4-2-15.3-3.4v186c0,16.7,13.4,30.3,29.9,30.3h418.9c16.6,0,29.9-13.5,29.9-30.3v-186
	c-5,1.5-10.1,2.7-15.3,3.4C526.4,285.9,520.8,286.3,515.1,286.3L515.1,286.3z"/>
</svg>
